<svg width="60" height="60" viewBox="0 0 60 60" fill="none" xmlns="http://www.w3.org/2000/svg">
<mask id="mask0_88_92" style="mask-type:alpha" maskUnits="userSpaceOnUse" x="0" y="0" width="60" height="60">
<rect width="60" height="60" fill="#D9D9D9"/>
</mask>
<g mask="url(#mask0_88_92)">
<path d="M15.75 44C17.875 42.5 20.0938 41.3125 22.4062 40.4375C24.7188 39.5625 27.25 39.125 30 39.125C32.75 39.125 35.2812 39.5625 37.5938 40.4375C39.9062 41.3125 42.125 42.5 44.25 44C45.9583 42.2917 47.3438 40.25 48.4062 37.875C49.4688 35.5 50 32.875 50 30C50 24.4583 48.0521 19.7396 44.1562 15.8438C40.2604 11.9479 35.5417 10 30 10C24.4583 10 19.7396 11.9479 15.8438 15.8438C11.9479 19.7396 10 24.4583 10 30C10 32.875 10.5312 35.5 11.5938 37.875C12.6562 40.25 14.0417 42.2917 15.75 44ZM30.0019 30.875C28.0006 30.875 26.3125 30.1881 24.9375 28.8144C23.5625 27.4406 22.875 25.7531 22.875 23.7519C22.875 21.7506 23.5619 20.0625 24.9356 18.6875C26.3094 17.3125 27.9969 16.625 29.9981 16.625C31.9994 16.625 33.6875 17.3119 35.0625 18.6856C36.4375 20.0594 37.125 21.7469 37.125 23.7481C37.125 25.7494 36.4381 27.4375 35.0644 28.8125C33.6906 30.1875 32.0031 30.875 30.0019 30.875ZM30 51.75C26.9583 51.75 24.1146 51.1875 21.4688 50.0625C18.8229 48.9375 16.5208 47.3958 14.5625 45.4375C12.6042 43.4792 11.0625 41.1771 9.9375 38.5312C8.8125 35.8854 8.25 33.0417 8.25 30C8.25 26.9583 8.8125 24.1146 9.9375 21.4688C11.0625 18.8229 12.6042 16.5208 14.5625 14.5625C16.5208 12.6042 18.8229 11.0625 21.4688 9.9375C24.1146 8.8125 26.9583 8.25 30 8.25C33.0417 8.25 35.8854 8.8125 38.5312 9.9375C41.1771 11.0625 43.4792 12.6042 45.4375 14.5625C47.3958 16.5208 48.9375 18.8229 50.0625 21.4688C51.1875 24.1146 51.75 26.9583 51.75 30C51.75 33.0417 51.1875 35.8854 50.0625 38.5312C48.9375 41.1771 47.3958 43.4792 45.4375 45.4375C43.4792 47.3958 41.1771 48.9375 38.5312 50.0625C35.8854 51.1875 33.0417 51.75 30 51.75ZM30 50C32.3333 50 34.6562 49.5729 36.9688 48.7188C39.2812 47.8646 41.25 46.7083 42.875 45.25C41.25 43.9167 39.3438 42.8542 37.1562 42.0625C34.9688 41.2708 32.5833 40.875 30 40.875C27.4167 40.875 25.0208 41.2604 22.8125 42.0312C20.6042 42.8021 18.7083 43.875 17.125 45.25C18.75 46.7083 20.7188 47.8646 23.0312 48.7188C25.3438 49.5729 27.6667 50 30 50ZM30 29.125C31.5 29.125 32.7708 28.6042 33.8125 27.5625C34.8542 26.5208 35.375 25.25 35.375 23.75C35.375 22.25 34.8542 20.9792 33.8125 19.9375C32.7708 18.8958 31.5 18.375 30 18.375C28.5 18.375 27.2292 18.8958 26.1875 19.9375C25.1458 20.9792 24.625 22.25 24.625 23.75C24.625 25.25 25.1458 26.5208 26.1875 27.5625C27.2292 28.6042 28.5 29.125 30 29.125Z" fill="#C23350"/>
</g>
</svg>
