<svg width="100" height="100" viewBox="0 0 100 100" fill="none" xmlns="http://www.w3.org/2000/svg">
<rect x="0.5" y="0.5" width="99" height="99" rx="4.5" stroke="#9747FF" stroke-dasharray="10 5"/>
<mask id="mask0_88_93" style="mask-type:alpha" maskUnits="userSpaceOnUse" x="20" y="20" width="60" height="60">
<rect x="20" y="20" width="60" height="60" fill="#D9D9D9"/>
</mask>
<g mask="url(#mask0_88_93)">
<path d="M35.75 64C37.875 62.5 40.0938 61.3125 42.4062 60.4375C44.7188 59.5625 47.25 59.125 50 59.125C52.75 59.125 55.2812 59.5625 57.5938 60.4375C59.9062 61.3125 62.125 62.5 64.25 64C65.9583 62.2917 67.3438 60.25 68.4062 57.875C69.4688 55.5 70 52.875 70 50C70 44.4583 68.0521 39.7396 64.1562 35.8438C60.2604 31.9479 55.5417 30 50 30C44.4583 30 39.7396 31.9479 35.8438 35.8438C31.9479 39.7396 30 44.4583 30 50C30 52.875 30.5312 55.5 31.5938 57.875C32.6562 60.25 34.0417 62.2917 35.75 64ZM50.0019 50.875C48.0006 50.875 46.3125 50.1881 44.9375 48.8144C43.5625 47.4406 42.875 45.7531 42.875 43.7519C42.875 41.7506 43.5619 40.0625 44.9356 38.6875C46.3094 37.3125 47.9969 36.625 49.9981 36.625C51.9994 36.625 53.6875 37.3119 55.0625 38.6856C56.4375 40.0594 57.125 41.7469 57.125 43.7481C57.125 45.7494 56.4381 47.4375 55.0644 48.8125C53.6906 50.1875 52.0031 50.875 50.0019 50.875ZM50 71.75C46.9583 71.75 44.1146 71.1875 41.4688 70.0625C38.8229 68.9375 36.5208 67.3958 34.5625 65.4375C32.6042 63.4792 31.0625 61.1771 29.9375 58.5312C28.8125 55.8854 28.25 53.0417 28.25 50C28.25 46.9583 28.8125 44.1146 29.9375 41.4688C31.0625 38.8229 32.6042 36.5208 34.5625 34.5625C36.5208 32.6042 38.8229 31.0625 41.4688 29.9375C44.1146 28.8125 46.9583 28.25 50 28.25C53.0417 28.25 55.8854 28.8125 58.5312 29.9375C61.1771 31.0625 63.4792 32.6042 65.4375 34.5625C67.3958 36.5208 68.9375 38.8229 70.0625 41.4688C71.1875 44.1146 71.75 46.9583 71.75 50C71.75 53.0417 71.1875 55.8854 70.0625 58.5312C68.9375 61.1771 67.3958 63.4792 65.4375 65.4375C63.4792 67.3958 61.1771 68.9375 58.5312 70.0625C55.8854 71.1875 53.0417 71.75 50 71.75ZM50 70C52.3333 70 54.6562 69.5729 56.9688 68.7188C59.2812 67.8646 61.25 66.7083 62.875 65.25C61.25 63.9167 59.3438 62.8542 57.1562 62.0625C54.9688 61.2708 52.5833 60.875 50 60.875C47.4167 60.875 45.0208 61.2604 42.8125 62.0312C40.6042 62.8021 38.7083 63.875 37.125 65.25C38.75 66.7083 40.7188 67.8646 43.0312 68.7188C45.3438 69.5729 47.6667 70 50 70ZM50 49.125C51.5 49.125 52.7708 48.6042 53.8125 47.5625C54.8542 46.5208 55.375 45.25 55.375 43.75C55.375 42.25 54.8542 40.9792 53.8125 39.9375C52.7708 38.8958 51.5 38.375 50 38.375C48.5 38.375 47.2292 38.8958 46.1875 39.9375C45.1458 40.9792 44.625 42.25 44.625 43.75C44.625 45.25 45.1458 46.5208 46.1875 47.5625C47.2292 48.6042 48.5 49.125 50 49.125Z" fill="#C23350"/>
</g>
</svg>
